# xmcd CD database file
#
# Track frame offsets:
#	150
#	17205
#	35681
#	52736
#
# Disc length: 946 seconds
#
# Revision: 1
# Processed by: cddbd v1.5.2PL0 Copyright (c) Steve Scherf et al.
# Submitted via: CDex 1.70beta2
#
DISCID=2903b004
DTITLE=ザ・チルドレン starring 平野 綾 and 白石 涼子 and 戸松 遥 - 絶対love × love宣言!!
DYEAR=2008
DGENRE=アニメ
TTITLE0=絶対love×love宣言！！
TTITLE1=Over The Future feat. THE CHILDREN
TTITLE2=INST/絶対love×love宣言！！(INST)
TTITLE3=INST/Over The Future feat. THE CHILDREN(INST)
EXTD=YEAR: 2008
EXTT0=
EXTT1=
EXTT2=
EXTT3=
PLAYORDER=
